<?xml version="1.0" standalone="no"?>
<!DOCTYPE svg PUBLIC "-//W3C//DTD SVG 20010904//EN"
 "http://www.w3.org/TR/2001/REC-SVG-20010904/DTD/svg10.dtd">
<svg version="1.0" xmlns="http://www.w3.org/2000/svg"
 width="808.000000pt" height="140.000000pt" viewBox="0 0 808.000000 140.000000"
 preserveAspectRatio="xMidYMid meet">

<g transform="translate(0.000000,140.000000) scale(0.100000,-0.100000)"
fill="#000000" stroke="none">
<path d="M7101 1335 c-246 -55 -352 -114 -743 -411 -230 -175 -362 -234 -543
-241 -103 -5 -112 -3 -145 19 -19 13 -36 33 -38 43 -12 83 -30 85 -100 11
-115 -121 -142 -208 -84 -266 36 -35 90 -45 216 -37 194 11 380 103 746 371
113 83 224 155 285 185 153 76 317 118 419 107 49 -5 66 -12 92 -37 23 -22 38
-29 52 -25 32 10 192 195 192 221 0 13 -8 33 -19 46 -17 21 -27 23 -142 26
-82 2 -146 -2 -188 -12z"/>
<path d="M3595 1165 c-236 -24 -348 -51 -465 -110 -107 -55 -151 -118 -153
-225 -2 -65 6 -80 39 -80 18 0 50 25 117 94 107 108 182 152 330 191 153 40
423 58 511 34 53 -15 86 -50 86 -92 0 -91 -233 -204 -461 -223 -53 -5 -79 -3
-79 4 0 12 190 128 292 178 78 37 88 47 81 74 -8 31 -46 43 -125 39 -65 -4
-86 -10 -183 -58 -153 -76 -523 -328 -724 -493 -121 -100 -172 -179 -147 -229
21 -42 55 -46 199 -21 156 26 175 38 158 98 -13 49 4 82 76 140 76 62 131 80
207 67 115 -20 320 -122 431 -216 38 -32 45 -44 45 -73 0 -53 15 -74 54 -74
53 0 148 20 187 40 38 20 49 36 49 74 0 17 10 26 51 40 27 10 77 38 109 62
l59 43 31 -31 c29 -29 35 -30 84 -25 29 3 77 17 107 32 40 21 54 24 58 14 2
-7 15 -23 29 -36 21 -19 36 -23 89 -23 l64 0 -37 -45 c-77 -91 -185 -144 -302
-146 -81 -2 -105 5 -152 40 -28 21 -46 26 -90 25 -102 0 -199 -71 -170 -123 5
-11 40 -34 76 -52 62 -31 73 -33 197 -37 301 -9 429 62 663 368 145 190 245
298 347 375 69 52 88 71 85 88 -4 30 -43 47 -106 47 -73 0 -112 -21 -175 -93
-28 -33 -93 -102 -143 -153 -84 -85 -127 -115 -141 -100 -13 13 35 94 90 152
61 66 67 82 39 107 -23 21 -35 21 -101 1 -44 -13 -71 -33 -176 -134 -118 -113
-165 -143 -195 -125 -16 10 15 60 55 91 22 17 35 35 35 49 0 22 -6 30 -45 63
-8 7 -15 23 -15 36 0 73 -137 86 -287 29 -12 -5 -7 8 16 40 30 41 33 51 29 96
-6 58 -41 112 -90 137 -115 60 -339 78 -613 49z m422 -497 c-49 -58 -87 -123
-87 -150 0 -9 -4 -19 -9 -22 -5 -3 -53 12 -108 33 -54 21 -128 49 -166 61 -37
13 -65 25 -63 28 3 2 25 6 48 9 106 10 279 44 343 66 39 14 74 25 78 26 5 0
-12 -23 -36 -51z m352 18 c17 -20 2 -45 -51 -90 -59 -51 -119 -78 -165 -74
-58 5 -55 30 9 92 74 71 178 107 207 72z"/>
<path d="M1345 1129 c-206 -20 -529 -102 -578 -147 -46 -42 -62 -134 -33 -191
16 -29 25 -34 211 -107 244 -95 275 -123 193 -174 -75 -46 -231 -68 -358 -52
-208 28 -410 138 -426 231 -9 58 -22 81 -44 81 -68 0 -180 -113 -180 -180 0
-82 80 -142 272 -204 276 -90 588 -87 828 9 l85 34 85 -34 c91 -36 214 -57
290 -49 53 6 137 31 165 50 32 23 53 17 60 -16 14 -62 89 -91 179 -71 62 14
167 62 215 98 l33 26 22 -27 c49 -61 195 -57 310 8 74 41 205 155 213 184 6
26 -12 52 -36 52 -9 0 -62 -28 -116 -61 -112 -69 -174 -94 -210 -85 -34 9 -31
32 10 77 39 43 40 47 24 118 -13 60 -68 116 -124 127 -100 18 -201 -22 -380
-149 -187 -134 -283 -182 -386 -194 -53 -6 -89 9 -89 37 0 23 14 27 126 34
100 6 175 37 223 91 29 33 33 43 28 78 -9 65 -40 87 -128 94 -134 10 -242 -24
-382 -121 l-68 -47 -39 31 c-57 45 -193 114 -295 150 -49 17 -94 35 -98 39
-15 15 11 48 55 70 24 11 90 30 148 42 89 19 136 23 315 23 160 0 219 -3 250
-15 l40 -14 0 -55 0 -55 37 2 c67 4 198 86 213 133 15 49 -37 82 -179 111
-110 23 -340 32 -481 18z m455 -429 c0 -15 -37 -31 -91 -39 -50 -8 -69 -1 -46
17 33 26 137 43 137 22z m570 -39 c0 -46 -118 -153 -204 -186 -98 -38 -132 19
-57 94 91 91 261 151 261 92z"/>
<path d="M6940 1070 c-179 -44 -290 -102 -539 -283 -286 -208 -395 -272 -564
-329 -82 -28 -105 -31 -212 -32 -142 -1 -187 14 -220 76 -11 21 -25 38 -31 38
-18 0 -140 -141 -168 -195 -78 -147 20 -256 202 -226 221 38 473 172 937 501
197 139 296 182 452 195 64 6 81 4 92 -8 20 -25 -25 -47 -183 -88 -169 -44
-230 -71 -314 -134 -80 -61 -106 -107 -106 -195 0 -95 43 -161 118 -181 46
-13 374 -3 546 16 35 4 100 10 215 20 360 31 333 21 494 194 105 112 129 156
107 186 -11 16 -20 14 -97 -24 -109 -54 -283 -96 -457 -112 -179 -17 -627 -18
-642 -3 -34 34 41 93 140 113 98 20 181 49 223 78 45 31 248 257 271 301 13
25 13 32 0 59 -9 17 -26 35 -40 42 -36 16 -138 12 -224 -9z"/>
<path d="M5479 1001 c-21 -22 -29 -39 -29 -66 0 -51 44 -95 95 -95 51 0 95 44
95 95 0 27 -8 44 -29 66 -41 40 -91 40 -132 0z m118 -13 c47 -44 14 -128 -51
-128 -65 0 -97 71 -55 124 26 33 73 35 106 4z"/>
<path d="M5507 983 c-11 -10 -8 -91 3 -98 6 -3 10 3 10 14 0 27 26 27 40 1 6
-11 15 -20 21 -20 6 0 6 7 -1 19 -5 11 -7 33 -4 50 4 17 3 31 -2 32 -5 0 -21
3 -35 5 -14 2 -29 1 -32 -3z m53 -28 c0 -8 -9 -15 -20 -15 -11 0 -20 7 -20 15
0 8 9 15 20 15 11 0 20 -7 20 -15z"/>
<path d="M7771 433 c-65 -60 -30 -163 54 -163 49 0 74 15 90 53 18 43 9 82
-27 112 -39 33 -80 32 -117 -2z m98 -3 c10 -5 24 -23 31 -39 34 -82 -87 -141
-136 -66 -41 63 37 142 105 105z"/>
<path d="M7790 364 c0 -35 4 -53 10 -49 6 4 8 10 5 15 -13 21 20 21 36 -1 10
-13 21 -21 25 -17 4 4 1 14 -5 22 -10 11 -9 19 1 35 16 26 3 40 -40 46 l-32 4
0 -55z m55 27 c3 -5 1 -13 -5 -16 -15 -9 -43 3 -35 15 8 13 32 13 40 1z"/>
</g>
</svg>
