<svg width="167" height="62" viewBox="0 0 167 62" fill="none" xmlns="http://www.w3.org/2000/svg">
<g clip-path="url(#clip0_7189_10917)">
<path d="M15.7449 57.0516C15.7449 56.7032 15.6788 56.4316 15.5466 56.2249C15.4145 56.0242 15.2583 55.8706 15.0721 55.7702C14.8858 55.6699 14.6996 55.6049 14.5134 55.5754C14.3212 55.5459 14.171 55.5341 14.0508 55.5341H3.88665V58.5514H14.0508C14.1409 58.5514 14.2731 58.5337 14.4593 58.5101C14.6395 58.4805 14.8258 58.4156 15.018 58.3152C15.2102 58.2148 15.3784 58.0613 15.5226 57.8605C15.6668 57.6598 15.7449 57.3941 15.7388 57.0575M15.7268 51.2C15.7268 50.8516 15.6608 50.58 15.5286 50.3733C15.3964 50.1725 15.2403 50.0249 15.054 49.9304C14.8678 49.836 14.6816 49.7769 14.4954 49.7474C14.3031 49.7179 14.153 49.7061 14.0328 49.7061H3.87464V52.7234H14.0448C14.1349 52.7234 14.2671 52.7116 14.4533 52.6821C14.6335 52.6525 14.8258 52.5817 15.012 52.4754C15.2042 52.3691 15.3724 52.2097 15.5166 52.0089C15.6608 51.8082 15.7388 51.5365 15.7328 51.2059M19.4633 57.5181C19.4633 58.268 19.3312 58.9116 19.0728 59.4371C18.8085 59.9626 18.4541 60.3996 18.0096 60.7421C17.565 61.0845 17.0364 61.3325 16.4297 61.492C15.823 61.6514 15.1682 61.7281 14.4593 61.7281H1.39968C0.696835 61.7281 0.030036 61.0845 0.030036 60.4055L0 47.5803C0 46.9662 0.45054 46.5293 1.0873 46.5293H14.4293C15.1622 46.5293 15.835 46.612 16.4537 46.7773C17.0664 46.9426 17.5951 47.2024 18.0396 47.5508C18.4781 47.8992 18.8265 48.3421 19.0788 48.8853C19.3312 49.4285 19.4573 50.084 19.4573 50.8516C19.4453 51.3181 19.3552 51.755 19.199 52.1742C19.0668 52.5344 18.8566 52.8946 18.5622 53.2607C18.2679 53.6209 17.8414 53.9161 17.2887 54.1523C17.8474 54.4121 18.2739 54.7369 18.5682 55.1207C18.8626 55.5045 19.0788 55.8765 19.211 56.2367C19.3732 56.656 19.4633 57.0811 19.4753 57.5181" fill="white"/>
<path d="M32.9502 49.2812L29.442 55.3099H36.4824L32.9502 49.2812ZM40.1649 61.628L38.3747 58.593H27.5317L25.7536 61.628H21.6387L30.2049 46.8661C30.3611 46.5945 30.6555 46.4351 31.0039 46.4351H34.7584C35.1428 46.4351 35.5393 46.6713 35.7496 47.0314L44.2738 61.6221H40.1589L40.1649 61.628Z" fill="white"/>
<path d="M55.0748 57.908L55.0808 61.628H51.2302L51.2242 58.0792L42.6699 46.4409H47.2834L53.1104 54.6958L58.8113 46.4409H63.587L55.0748 57.908Z" fill="white"/>
<path d="M67.3951 60.2285L67.3711 46.4409H71.2397L71.2638 57.7722C71.2638 58.0674 71.5581 58.3508 71.8645 58.3508H84.9241V61.628H68.8489C68.104 61.628 67.3951 60.9489 67.3951 60.2285Z" fill="white"/>
<path d="M89.0379 61.628L89.0078 46.4409H92.8824L92.9065 61.628H89.0379Z" fill="white"/>
<path d="M113.679 61.2147L102.963 51.0172L102.981 61.628H99.1119L99.0879 47.3031C99.0879 46.7952 99.4603 46.4351 99.983 46.4351H102.398C102.752 46.4351 103.119 46.5886 103.401 46.8602L114.106 57.0459L114.088 46.4351H117.956L117.981 60.7187C117.981 61.2442 117.59 61.6221 117.043 61.6221H114.653C114.31 61.6221 113.95 61.4686 113.679 61.2088" fill="white"/>
<path d="M123.833 60.5474L123.809 47.2381C123.809 46.7716 124.151 46.4409 124.632 46.4409H142.347V49.7181H127.683V52.452H140.599V55.4043H127.695V58.3567H142.942V61.6339H124.956C124.379 61.6339 123.833 61.1083 123.833 60.5533" fill="white"/>
<path d="M163.102 51.4304C163.102 51.0702 163.036 50.775 162.903 50.5506C162.771 50.3263 162.609 50.155 162.417 50.031C162.225 49.907 162.032 49.8243 161.834 49.783C161.636 49.7417 161.48 49.7181 161.36 49.7181H151.97V53.1664H161.366C161.456 53.1664 161.594 53.1428 161.786 53.0897C161.978 53.0365 162.171 52.948 162.369 52.8181C162.567 52.6882 162.735 52.511 162.885 52.2866C163.03 52.0623 163.102 51.7788 163.102 51.4304ZM166.97 51.4304C166.97 52.0977 166.886 52.6823 166.712 53.1901C166.538 53.6979 166.31 54.1348 166.021 54.5009C165.733 54.867 165.414 55.18 165.054 55.4221C164.694 55.6701 164.333 55.8649 163.967 56.0066L166.658 61.628H162.525L160.05 56.4436H151.976L151.988 61.628H148.12L148.096 47.3089C148.096 46.8011 148.468 46.4409 148.991 46.4409H161.924C162.333 46.4409 162.831 46.5118 163.408 46.6594C163.985 46.8011 164.543 47.0609 165.072 47.427C165.601 47.7931 166.051 48.3009 166.418 48.9445C166.784 49.5882 166.97 50.4148 166.97 51.4304Z" fill="white"/>
<path d="M102.963 24.357C102.945 24.5164 102.915 24.664 102.861 24.7998C102.56 25.5202 101.701 25.9454 100.626 26.1343C100.188 26.2111 99.719 26.2465 99.2384 26.2465H68.1992C68.1992 26.2465 71.5092 30.4153 80.6882 30.4153C88.5156 30.4153 93.5616 30.4802 99.2264 30.4802C101.311 30.4802 103.023 30.2086 104.387 29.689C105.48 29.2697 106.339 28.6793 106.964 27.9294C106.633 25.7623 104.759 24.7821 102.963 24.3511" fill="#6ABFDD"/>
<path d="M107.937 25.5559C108.111 24.9359 108.213 24.2569 108.213 23.5129C108.213 19.0961 103.023 17.5077 100.127 17.5077C98.9919 17.5077 60.9243 17.3896 55.0312 17.3896C55.0312 17.3896 57.35 21.7533 68.9619 21.7533H96.559C99.5205 21.7533 102.71 21.5584 105.396 23.0228C106.471 23.6074 107.396 24.4576 107.937 25.5559Z" fill="#6ABFDD"/>
<path d="M100.127 12.7718C101.215 12.7718 102.626 12.5002 103.966 11.9274C104.819 11.5613 105.648 11.0713 106.339 10.4453C106.513 10.2859 106.675 10.1206 106.831 9.94935C106.375 7.94763 104.645 7.00287 102.969 6.56592C102.969 6.60725 102.975 6.64858 102.975 6.68992C102.975 6.81982 102.957 6.93792 102.927 7.05011C102.699 7.96535 101.599 8.34325 100.494 8.47316C100.151 8.51449 99.8091 8.5322 99.4907 8.5322H42.4824C42.4824 8.5322 44.0082 12.7777 55.1936 12.7777H100.127V12.7718Z" fill="#6ABFDD"/>
<path d="M99.0343 4.27505C100.296 4.28686 101.563 4.35771 102.789 4.61162C104.182 4.90095 105.576 5.42648 106.657 6.35352C106.898 6.56019 107.12 6.78457 107.318 7.02667C107.42 7.15067 107.516 7.27467 107.601 7.41048C107.637 7.46952 107.877 7.76476 107.853 7.82381C108.087 7.27467 108.219 6.67238 108.219 6.00514C108.213 1.79505 104.579 0 99.2265 0C95.8865 0 72.4825 0 67.7188 0C67.7188 0 70.1456 4.27505 80.6042 4.27505C82.5265 4.27505 84.4548 4.27505 86.3771 4.27505C87.9089 4.27505 89.4408 4.27505 90.9666 4.27505C92.108 4.27505 93.2493 4.27505 94.3907 4.27505C95.3939 4.27505 96.4031 4.27505 97.4063 4.27505C97.9409 4.27505 98.4816 4.26914 99.0282 4.27505" fill="#6ABFDD"/>
</g>
<defs>
<clipPath id="clip0_7189_10917">
<rect width="167" height="62" fill="white"/>
</clipPath>
</defs>
</svg>
