<svg xmlns:dc="http://purl.org/dc/elements/1.1/" xmlns:cc="http://creativecommons.org/ns#" xmlns:rdf="http://www.w3.org/1999/02/22-rdf-syntax-ns#" xmlns:svg="http://www.w3.org/2000/svg" xmlns="http://www.w3.org/2000/svg" xmlns:sodipodi="http://sodipodi.sourceforge.net/DTD/sodipodi-0.dtd" xmlns:inkscape="http://www.inkscape.org/namespaces/inkscape" id="svg3821" version="1.1" inkscape:version="0.48.4 r9939" sodipodi:docname="Boston Whaler vector logo.svg" inkscape:export-filename="C:\Users\Gregory\Desktop\Boston Whaler Vector Logo.png" inkscape:export-xdpi="150.22136" inkscape:export-ydpi="150.22136" viewBox="0 0 801.57 179.73">
  <title id="title3838">Boston Whaler Vector Logo</title>
  <defs id="defs3823"/>
  <sodipodi:namedview id="base" pagecolor="#ffffff" bordercolor="#666666" borderopacity="1.0" inkscape:pageopacity="0.0" inkscape:pageshadow="2" inkscape:zoom="0.98994948" inkscape:cx="479.41865" inkscape:cy="-15.391477" inkscape:document-units="px" inkscape:current-layer="layer1" showgrid="false" inkscape:window-width="1218" inkscape:window-height="697" inkscape:window-x="54" inkscape:window-y="-8" inkscape:window-maximized="1" fit-margin-top="0" fit-margin-left="0" fit-margin-right="0" fit-margin-bottom="0"/>
  <metadata id="metadata3826">
    <rdf:RDF>
      <cc:Work rdf:about="">
        <dc:format>image/svg+xml</dc:format>
        <dc:type rdf:resource="http://purl.org/dc/dcmitype/StillImage"/>
        <dc:title>Boston Whaler Vector Logo</dc:title>
        <cc:license rdf:resource=""/>
        <dc:date>08/30/2013</dc:date>
        <dc:creator>
          <cc:Agent>
            <dc:title>Gregory J. Weston</dc:title>
          </cc:Agent>
        </dc:creator>
      </cc:Work>
    </rdf:RDF>
  </metadata>
  <g inkscape:label="Layer 1" inkscape:groupmode="layer" id="layer1" transform="translate(-104.52385,-559.25971)" sodipodi:insensitive="true">
    <g transform="matrix(0.30954188,0,0,0.30954188,57.586536,931.41754)" id="g3806">
      <path inkscape:transform-center-y="-290.32424" inkscape:transform-center-x="-1290.3055" style="fill:#090909" d="m 152.50085,-622.13953 c -2.48062,-2.58334 -0.0819,-9.1296 13.10591,-35.76587 7.51329,-15.17526 14.18956,-28.11445 14.83616,-28.75372 0.86379,-0.85415 28.09273,-1.16667 102.69672,-1.17872 55.83666,-0.009 300.23738,-0.0313 543.11269,-0.0495 702.47707,-0.0527 1100.37007,-0.25923 1129.24407,-0.58601 80.9784,-0.91646 146.8036,-11.05178 220.7139,-33.984 100.4015,-31.15169 188.4139,-79.77982 273.1373,-150.91223 14.9106,-12.51879 56.5306,-52.49196 69.9938,-67.22453 56.019,-61.30009 106.6014,-133.04759 144.482,-204.93749 l 6.2453,-11.8523 10.3021,-0.4014 c 22.6599,-0.883 60.1319,-1.403 60.6708,-0.8417 2.4446,2.5458 -28.8899,64.8323 -52.0102,103.3855 -81.0725,135.18895 -189.8623,246.97845 -311.5016,320.09091 -116.5793,70.07104 -243.5525,107.10293 -383.8492,111.95003 -23.0087,0.79491 -154.2121,1.10917 -573.6458,1.37394 -313.7302,0.19804 -1130.057,0.15183 -1210.74762,-0.0685 -17.05257,-0.0466 -36.64675,0.0447 -43.54267,0.2029 -6.89593,0.15817 -12.85557,-0.0431 -13.24366,-0.44725 z m 105.31793,-143.18835 c -1.11731,-0.74095 5.01914,-24.28122 33.38935,-128.08533 19.11702,-69.94764 35.17424,-128.12069 35.68272,-129.27349 0.88182,-1.9993 1.81559,-2.1064 20.26631,-2.3249 10.63805,-0.126 31.03564,-0.111 45.32795,0.034 23.35651,0.2359 26.01447,0.4276 26.26719,1.8988 0.15458,0.8999 -8.85577,29.36729 -20.023,63.26077 -11.16734,33.89353 -20.31622,62.2177 -20.33092,62.94264 -0.0175,0.86217 0.64616,0.64943 1.91877,-0.61512 1.06998,-1.06324 22.15756,-29.42894 46.86124,-63.03487 24.70369,-33.60596 45.73354,-61.90702 46.7329,-62.89122 1.67531,-1.6498 4.78347,-1.7745 39.81327,-1.5967 22.24648,0.113 38.21906,0.5721 38.53416,1.1077 0.29586,0.5032 -7.40245,28.43444 -17.10745,62.06957 -9.70509,33.6351 -17.65785,61.74366 -17.67285,62.46347 -0.015,0.7198 0.42314,1.04278 0.97375,0.71774 0.5506,-0.32503 20.96473,-27.95579 45.36481,-61.40167 24.40008,-33.44584 44.94463,-61.40131 45.65461,-62.12331 0.99268,-1.0095 8.88683,-1.3564 34.17718,-1.5017 18.08743,-0.1039 40.23503,-0.2884 49.21684,-0.41 13.20414,-0.1787 16.26365,0.029 15.98122,1.0878 -0.19213,0.7198 -45.31082,58.94233 -100.26372,129.38331 l -99.91432,128.07452 -18.21165,0.21743 c -32.52426,0.38834 -75.46507,-0.13068 -76.69697,-0.92701 -0.89061,-0.57567 3.42301,-16.66787 16.65288,-62.12504 9.82007,-33.74147 17.87289,-62.24178 17.89505,-63.33401 0.0221,-1.09222 -0.33661,-1.76337 -0.79722,-1.49144 -0.46061,0.27193 -22.46764,29.28193 -48.9045,64.46668 l -48.067,63.97226 -33.66832,-0.0739 c -18.51759,-0.0407 -39.0717,0.0375 -45.67582,0.1737 -6.60412,0.13621 -12.62353,-0.16083 -13.37646,-0.66012 z m 327.97414,-0.96616 c 0.009,-0.44432 31.39078,-58.59295 69.73742,-129.21917 42.36454,-78.02664 70.37088,-128.57949 71.37747,-128.83999 0.91096,-0.2358 21.79608,-0.3311 46.41123,-0.2117 38.75006,0.1879 44.75086,0.4115 44.7254,1.6669 -0.0162,0.7974 -10.08149,19.8141 -22.36739,42.25924 -12.2858,22.4452 -22.09218,41.22571 -21.79173,41.7345 0.8903,1.50811 45.96854,2.10116 47.18081,0.62073 0.55393,-0.6764 10.51203,-18.81569 22.1292,-40.30956 11.61707,-21.49381 22.16972,-40.69431 23.4503,-42.66781 l 2.32825,-3.5881 27.81717,-0.057 c 15.29949,-0.031 36.7083,-0.1453 47.57522,-0.2535 17.86678,-0.1777 19.75488,-0.04 19.72489,1.4386 -0.0467,2.3031 -138.99206,254.95307 -141.25905,256.85712 -1.56476,1.31422 -6.26536,1.57703 -29.69267,1.66007 -15.30854,0.0543 -36.50025,0.20945 -47.09267,0.34487 -14.31046,0.18296 -19.25291,-0.0518 -19.23543,-0.91365 0.0129,-0.63793 11.46861,-21.20141 25.45703,-45.69661 13.98842,-24.4952 25.16217,-44.99631 24.83059,-45.55802 -0.76071,-1.28865 -43.39777,-0.91437 -45.12251,0.39612 -0.65848,0.50031 -12.09687,20.95667 -25.41859,45.45854 -13.32172,24.50187 -24.90835,44.89883 -25.7481,45.32656 -2.02472,1.03132 -95.03795,0.59253 -95.01685,-0.44824 z m 258.07376,-0.84753 c 0.015,-0.74424 212.34362,-244.17353 221.16062,-253.55863 l 2.8559,-3.0399 22.8733,-0.185 c 73.757,-0.5966 80.3909,-0.4707 80.3504,1.5247 -0.075,3.7014 -55.3164,256.87507 -56.2431,257.76491 -1.2646,1.21426 -90.8951,1.29838 -92.0588,0.0864 -0.5216,-0.54319 1.1164,-7.50921 4.0155,-17.07685 2.6931,-8.88768 4.6542,-16.83121 4.3581,-17.65228 -0.8133,-2.25504 -58.22277,-2.13988 -60.9299,0.12222 -1.00148,0.83688 -6.86539,8.23403 -13.03074,16.4381 -6.16544,8.20408 -11.80692,15.38978 -12.5367,15.96821 -1.66795,1.32205 -100.84673,0.9365 -100.81458,-0.39189 z m 207.76942,-97.61833 c 0.5873,-0.56387 20.5732,-66.013 20.616,-67.51184 0.01,-0.45825 -0.4113,-0.69182 -0.9429,-0.51922 -1.8196,0.59072 -51.3714,67.05958 -50.7619,68.092 0.6299,1.06699 29.9741,1.00947 31.0888,-0.061 z m 72.9569,100.28339 c -0.5805,-0.98337 135.6243,-258.19809 137.8288,-260.28159 2.137,-2.0196 99.8213,-2.4209 99.7806,-0.4099 -0.01,0.5001 -22.2145,40.18114 -49.3429,88.18017 -27.1286,47.999 -49.1033,87.88445 -48.8328,88.63431 0.3393,0.94091 1.6643,1.23876 4.2759,0.96116 2.0813,-0.22122 19.4239,-0.35373 38.5392,-0.29444 30.9674,0.0961 34.7515,0.27652 34.7235,1.65598 -0.017,0.85149 -9.3534,19.57308 -20.747,41.60352 -17.4271,33.69649 -21.0904,40.12368 -23.0758,40.48584 -1.2981,0.23678 -30.4892,0.34414 -64.8691,0.23858 -34.3799,-0.1056 -72.6833,-0.11252 -85.1189,-0.0158 -13.4916,0.10534 -22.8322,-0.20044 -23.1614,-0.75824 z m 195.3174,-0.16947 c 0.019,-0.94456 138.053,-257.68822 139.0615,-258.65512 0.3998,-0.3833 33.3589,-0.7182 73.2427,-0.7444 108.7623,-0.071 101.4655,-0.1916 101.7862,1.6766 0.1516,0.8837 -7.46,16.3188 -16.9147,34.30057 l -17.1903,32.6939 -4.2897,0.43859 c -2.3594,0.24131 -20.9298,0.37974 -41.2676,0.30769 -20.3379,-0.072 -37.3459,0.0864 -37.7957,0.3519 -1.6138,0.95277 -12.3294,22.36804 -11.5388,23.06034 0.4445,0.38919 17.0077,0.6859 36.807,0.65936 19.7993,-0.0266 36.3408,0.3078 36.7587,0.7426 0.7609,0.79242 -31.8627,64.94917 -33.5259,65.93099 -0.4856,0.28667 -16.3433,0.48201 -35.2394,0.43408 -18.8961,-0.048 -36.5448,0.15831 -39.2192,0.4583 l -4.8626,0.54546 -7.1572,11.27961 c -4.0615,6.40088 -6.7884,11.66368 -6.3045,12.16757 0.4838,0.5039 20.0299,0.81194 45.1904,0.71221 26.2894,-0.10421 44.6969,0.19813 45.2198,0.74274 0.5229,0.54461 -6.7777,15.48703 -17.9347,36.7076 -14.2359,27.0762 -19.3639,35.97304 -21.064,36.54455 -1.2359,0.41549 -41.4046,0.72538 -89.2637,0.68866 -98.9183,-0.0759 -94.5189,-0.0268 -94.4982,-1.0442 z m 220.0475,-0.11047 c 0.027,-1.33566 138.4758,-257.46355 139.9266,-258.86185 0.8455,-0.8149 138.3517,0.2018 144.1479,1.0658 23.0026,3.4289 44.2618,23.61377 47.242,44.85457 4.2829,30.52572 -28.1611,79.24986 -67.5366,101.42586 -6.9399,3.90856 -20.2215,8.77095 -23.7616,8.69915 -0.971,-0.0197 -2.1408,0.51919 -2.5997,1.19752 -0.4587,0.67834 -1.5245,24.17406 -2.3683,52.21271 l -1.5341,50.97937 -18.4709,0.23533 c -10.159,0.12943 -31.3138,0.15043 -47.0106,0.0466 l -28.5398,-0.18866 0.8923,-43.99095 c 0.5356,-26.40583 0.521,-44.19839 -0.037,-44.5099 -0.5108,-0.28541 -10.6787,18.63728 -22.5954,42.05043 -11.9166,23.41316 -22.0706,43.23632 -22.5645,44.05147 -1.0174,1.67924 -10.6321,2.00788 -63.9637,2.18634 -27.9581,0.0935 -31.2552,-0.06 -31.227,-1.45384 z m 205.1105,-146.08683 c 6.118,-2.94586 14.3501,-10.04463 17.9509,-15.47945 3.053,-4.60812 6.5433,-13.7849 6.6111,-17.3822 0.076,-4.25534 -3.4532,-9.1191 -8.2519,-11.35918 -2.4602,-1.14853 -7.8995,-2.39179 -12.3731,-2.8282 -9.8842,-0.96424 -11.2729,-0.22925 -16.996,8.99538 -9.3734,15.10798 -22.1706,38.92368 -21.5136,40.03671 0.5083,0.86094 4.595,1.09329 15.0294,0.85447 12.773,-0.29233 14.898,-0.60087 19.5432,-2.83753 z M 339.74599,-1081.6484 c -0.58995,-0.9992 18.40054,-103.0136 19.36183,-104.0096 1.3099,-1.3572 50.30716,-1.1249 56.32597,0.2671 11.85564,2.7417 18.56996,11.7094 18.31139,24.457 -0.1724,8.4999 -3.42567,15.2749 -9.78297,20.3736 -2.57949,2.0688 -4.69639,4.0794 -4.70427,4.4679 -0.008,0.3886 1.54454,1.7142 3.44976,2.9458 1.90532,1.2316 4.6549,4.3622 6.11018,6.957 2.2892,4.0813 2.6241,5.7962 2.48304,12.7158 -0.13357,6.5509 -0.66036,9.0056 -2.91086,13.5638 -3.90062,7.9005 -9.04158,12.9357 -16.43195,16.0937 -6.20262,2.6504 -6.77423,2.704 -31.32773,2.9332 -34.16918,0.319 -40.31222,0.204 -40.88439,-0.7653 z m 56.88541,-23.7783 c 2.17275,-1.0309 4.28866,-3.1446 5.49138,-5.4858 1.67351,-3.2577 1.79958,-4.3745 0.87149,-7.7177 -0.59693,-2.1498 -1.93041,-4.3834 -2.96326,-4.9634 -2.73452,-1.5356 -22.6918,-1.7829 -23.65482,-0.2931 -0.85975,1.33 -3.52519,13.9979 -3.67715,17.476 -0.0955,2.189 0.17272,2.254 10.1497,2.4548 7.75333,0.1563 11.10838,-0.2019 13.78266,-1.4708 z m -1.68371,-40.2692 c 7.66439,-1.0759 11.59771,-4.7007 11.72146,-10.8019 0.13328,-6.5705 -2.11571,-8.0289 -12.71303,-8.2438 -5.89659,-0.1196 -9.22242,0.2326 -9.90872,1.0492 -1.34821,1.6044 -3.90482,15.3022 -3.21364,17.2186 0.6302,1.7474 5.35349,2.0077 14.11393,0.7779 z m 81.96655,65.6237 c -10.85334,-2.0557 -21.85649,-10.1582 -26.33328,-19.3911 -5.09946,-10.5175 -5.86806,-31.1276 -1.70268,-45.6605 3.14442,-10.9708 9.70358,-22.1646 17.23564,-29.4142 8.76601,-8.4374 16.25702,-11.8877 28.84628,-13.2868 24.64391,-2.7386 40.08261,7.1125 46.3947,29.6038 2.34475,8.3549 1.76223,25.2439 -1.23282,35.739 -6.6355,23.252 -23.84052,39.9825 -43.99186,42.7783 -7.36514,1.0217 -12.38382,0.9255 -19.21598,-0.3688 z m 20.55155,-25.3081 c 12.49646,-5.4975 21.60022,-36.9724 14.73334,-50.9386 -4.37102,-8.89 -17.32557,-10.2911 -25.20401,-2.7259 -4.6395,4.455 -9.01261,13.529 -11.17001,23.1773 -3.02166,13.5133 -2.16764,21.2034 3.04138,27.3845 4.71267,5.5922 10.67811,6.5874 18.5993,3.1027 z m 83.66376,25.4768 c -14.27997,-2.1387 -23.59051,-8.883 -27.36464,-19.8223 -2.4619,-7.1358 -3.21249,-14.3583 -1.61901,-15.5786 0.99068,-0.7586 19.61465,-2.836 24.44522,-2.7266 0.64186,0.013 1.6244,2.393 2.18366,5.2855 0.61646,3.1885 2.04247,6.3741 3.62186,8.0911 9.08137,9.8721 28.0431,1.9514 23.4536,-9.7971 -1.45601,-3.7273 -3.25716,-4.9115 -16.37515,-10.766 -14.9791,-6.685 -20.92173,-11.1818 -24.52381,-18.5567 -2.48657,-5.0911 -2.84382,-6.9218 -2.6528,-13.5925 0.49719,-17.3569 11.82394,-28.3201 31.56893,-30.5553 15.97376,-1.8085 31.27826,2.5236 38.55383,10.9128 4.83005,5.5693 9.01434,18.1374 6.52715,19.6056 -0.43814,0.2587 -6.28498,0.6798 -12.99315,0.9358 l -12.19665,0.4654 -0.96898,-2.9102 c -1.52843,-4.5899 -2.37751,-5.7879 -5.85448,-8.2605 -5.78734,-4.1152 -14.53805,-2.3987 -17.05506,3.3456 -1.23563,2.8197 -1.17585,3.4522 0.55556,5.8854 2.13082,2.9944 1.83459,2.8154 18.08287,10.9203 13.19464,6.5816 18.7967,11.2016 22.37815,18.4548 2.20864,4.4731 2.54357,6.4377 2.42238,14.2076 -0.12836,8.2017 -0.44736,9.6092 -3.53406,15.5739 -8.16796,15.7837 -25.20263,22.3944 -48.65542,18.882 z m 83.10912,-2.5901 c 0.0239,-0.6871 3.22816,-18.1611 7.12143,-38.831 4.84112,-25.7023 6.76083,-37.9128 6.07312,-38.6289 -0.65089,-0.678 -5.52498,-0.9102 -13.82188,-0.6589 l -12.81642,0.3883 0.0564,-2.7796 c 0.0857,-4.2269 3.55349,-21.8425 4.48996,-22.8082 1.13191,-1.1674 85.07259,-1.2522 86.19129,-0.087 0.7317,0.7621 -0.9989,13.0972 -3.19109,22.7442 -0.45016,1.9807 -1.25989,2.1067 -15.06672,2.3432 -8.02503,0.1375 -14.86485,0.513 -15.19944,0.8343 -0.33458,0.3213 -3.82618,17.7122 -7.75902,38.6464 -3.93284,20.9342 -7.65016,38.6399 -8.2606,39.3459 -1.55868,1.8023 -27.87953,1.3213 -27.81702,-0.5083 z m 105.00154,2.2414 c -16.46904,-3.0747 -27.68981,-14.8373 -30.51301,-31.9869 -1.45532,-8.8403 -0.0202,-26.4929 2.84154,-34.9496 8.27683,-24.4598 23.66433,-38.3914 45.05755,-40.7944 16.19532,-1.8192 29.14058,2.0963 37.25774,11.2688 7.93616,8.9681 11.26219,19.4693 10.90089,34.417 -0.49169,20.3451 -7.09486,36.6038 -19.84197,48.8572 -12.83178,12.3347 -27.53957,16.5788 -45.70274,13.1879 z m 15.94012,-23.6468 c 6.13082,-1.5418 9.92811,-4.8807 13.98025,-12.2926 6.89488,-12.6116 9.40085,-30.3517 5.49021,-38.8659 -4.10413,-8.9358 -14.78102,-11.7717 -23.16648,-6.1535 -7.7572,5.1975 -15.16277,23.5835 -15.39898,38.2324 -0.14184,8.8174 4.61033,16.8649 11.21451,18.989 3.84004,1.2352 3.35104,1.2296 7.88047,0.091 z m 56.11451,22.2801 c -1.2558,-0.8117 17.40725,-102.4822 19.11261,-104.1196 0.53717,-0.5159 6.60346,-1.0111 13.48058,-1.1005 l 12.50397,-0.1625 1.79008,4.408 c 0.98454,2.4244 5.93752,15.6319 11.00646,29.35 5.06895,13.7181 9.58991,24.9496 10.04652,24.9589 1.25404,0.025 1.57648,-1.3684 7.00285,-30.2776 3.1012,-16.5222 5.53685,-27.122 6.34455,-27.6117 1.64284,-0.996 24.53271,-0.6246 25.122,0.4076 0.38134,0.6679 -17.32461,96.8401 -18.90138,102.6659 -0.60539,2.2369 -0.78807,2.259 -14.18155,1.7128 l -13.56827,-0.5534 -10.68072,-28.7225 c -5.87435,-15.7974 -11.07934,-28.7306 -11.56664,-28.7405 -0.4874,-0.01 -3.30716,12.7606 -6.26609,28.3788 -2.95904,15.6182 -5.69929,28.6752 -6.08967,29.0156 -1.02209,0.8911 -23.83306,1.2454 -25.1553,0.3907 z m 126.64602,-26.4097 c -1.05921,-0.7159 -1.34987,-38.4931 -0.30849,-40.104 0.56257,-0.8705 121.19903,-1.2266 476.73253,-1.4075 261.7887,-0.1331 480.7011,-0.034 486.4721,0.2197 l 10.4928,0.4618 0.2213,4.2553 0.2212,4.2554 17.6898,0.3108 c 28.2372,0.4967 425.2049,0.077 425.7538,-0.4497 0.2733,-0.2624 -1.3007,-2.9624 -3.4975,-6.0001 -7.6215,-10.5385 -10.4409,-21.3608 -9.9388,-38.1503 0.3698,-12.3688 1.0706,-15.8797 3.4554,-17.3146 2.6393,-1.5879 5.9086,2.4978 9.5821,11.9747 1.6972,4.3786 5.1035,10.7486 7.5698,14.1556 6.2123,8.5825 19.1009,19.0439 31.0344,25.1904 10.6474,5.4839 20.8947,9.2724 22.0583,8.1551 0.3926,-0.377 -1.0846,-2.6254 -3.2827,-4.9964 -7.5087,-8.0997 -10.5124,-18.2316 -9.4456,-31.8618 0.6578,-8.4044 2.8389,-13.129 6.346,-13.7459 0.9486,-0.1669 3.7619,2.6405 7.1619,7.1467 16.9166,22.4207 41.9895,42.4089 74.7154,59.5631 12.1095,6.3476 14.3614,7.8849 14.323,9.7782 -0.031,1.5288 -0.767,2.3766 -2.3043,2.6538 -1.2423,0.224 -25.8889,0.4223 -54.7702,0.4405 -28.8813,0.018 -61.5142,0.076 -72.5175,0.1278 -11.0033,0.052 -119.4767,0.1074 -241.052,0.1229 -197.9842,0.026 -221.1761,0.1924 -222.2921,1.6018 -0.6854,0.8654 -1.4157,2.0496 -1.6228,2.6316 -0.2594,0.7281 -145.6674,1.1319 -466.4083,1.295 -256.3174,0.1303 -474.91941,0.244 -485.78232,0.2527 -10.86291,0.01 -20.13618,-0.2447 -20.60722,-0.563 z" id="path3798" inkscape:connector-curvature="0"/>
    </g>
  </g>
</svg>