<svg xmlns="http://www.w3.org/2000/svg" xmlns:xlink="http://www.w3.org/1999/xlink" version="1.1" id="Layer_2" x="0px" y="0px" style="enable-background:new 0 0 130 28;" xml:space="preserve" viewBox="0.8 1.8 128.3 25.9">
<style type="text/css">
	.st0{display:none;}
	.st1{display:inline;}
	.st2{fill:#010101;}
	.st3{fill:#030303;}
	.st4{fill:#474747;}
</style>
<g id="Layer_2_1_" class="st0">
	<path class="st1" d="M42.3,14.2L42,14.3c-0.7,0.1-1.4,0.2-2.1,0.2h-1c-0.7,0-1.4-0.1-2.1-0.2l-0.5-0.1l0.1,0.5c0.1,0,0.2,0,0.3,0.1   c1.5,0.2,1.7,0.6,1.7,1.8v2.8c-0.8,0.5-1.8,0.7-2.8,0.6c-3.2,0-6-2.4-6.1-6.1c-0.2-3.5,2.2-6.5,5.6-6.5c2.3,0,4.2,0.8,5,3h0.5   l-0.5-3c-0.9,0.6-1.9-0.8-4.6-0.8c-4.6,0-7.9,3.4-7.9,7.4c0,4.2,3.6,6.9,7.9,6.9c1.7-0.1,3.4-0.6,5-1.4v-2.9c0-1.2,0.2-1.6,1.7-1.8   c0.2-0.1,0.2,0,0.2,0L42.3,14.2z M59.3,13.4c0-4.2-3.6-6.9-7.9-6.9c-4.6,0-7.9,3.4-7.9,7.4c0,4.2,3.6,6.9,7.9,6.9   C56,20.7,59.3,17.3,59.3,13.4z M57.4,13.6c0.3,3.4-1.9,6.2-5.4,6.2c-3.7,0-6.3-2.8-6.7-6.2c-0.3-3.4,1.9-6.2,5.4-6.2   C54.5,7.4,57,10.1,57.4,13.6z M75.3,13.3c0-3.9-3.6-6.5-7.9-6.5c-1,0-3.6,0.1-3.6,0.1c-1.1,0-2.1-0.1-3.2-0.2l-0.5-0.1l0.1,0.5   c0.1,0,0.2,0,0.3,0.1C62,7.4,62.2,7.8,62.2,9v9.2c0,1.2-0.2,1.6-1.7,1.8c-0.1,0-0.2,0.1-0.3,0.1l-0.1,0.5l0.5-0.1   c0.7-0.1,1.4-0.2,2.1-0.2l4.7,0.1C72,20.3,75.3,17,75.3,13.3z M73.2,13.4c0,3.3-2.5,6.2-5.9,6.2c-2.6,0-3.2-0.5-3.2-1.8V7.6   c0.5-0.1,2.6-0.1,3.2-0.1c3.2,0,5.8,2.5,5.9,5.7C73.2,13.2,73.2,13.3,73.2,13.4z M85.8,9.3l-0.5-2.5h-7c-0.7,0-1.4-0.1-2.1-0.2   l-0.5-0.1L75.8,7c0.1,0,0.2,0,0.3,0.1c1.5,0.2,1.7,0.6,1.7,1.8v9.2c0,1.2-0.2,1.6-1.7,1.8C76,20,75.9,20,75.8,20l-0.1,0.5l0.5-0.1   c0.7-0.1,1.4-0.2,2.1-0.2h1c0.7,0,1.4,0.1,2.1,0.2l0.5,0.1L81.7,20c-0.1,0-0.2,0-0.3-0.1c-1.5-0.2-1.7-0.6-1.7-1.8v-4.9h5v-0.8h-5   V7.7l3.8,0.1c1.3,0.1,1.5,0.1,1.8,1.5L85.8,9.3L85.8,9.3z M109.4,22.3c-1.4,0.5-2.9,0.5-4.3,0.1c-4.3-1.5-8.2-7-10.1-8.3   c1.3-0.5,2.9-1.8,2.9-3.8c0-1.9-1.8-3.4-4.9-3.4c-2.3,0-3,0.1-3.4,0.1h-0.2c-0.7,0-1.4-0.1-2.1-0.2l-0.5-0.1l0.1,0.5   c0.1,0,0.2,0,0.3,0.1C88.7,7.4,89,7.8,89,9.1v9.1c0,1.2-0.2,1.6-1.7,1.8c-0.1,0-0.3,0-0.4,0l-0.1,0.5l0.5-0.1   c0.7-0.1,1.4-0.2,2.1-0.2h1c0.7,0,1.4,0.1,2.1,0.2l0.5,0.1L92.9,20c-0.1,0-0.2,0-0.3-0.1c-1.5-0.2-1.7-0.6-1.7-1.8v-3.6h1.9   c0.2,0.1,0.5,0.2,0.7,0.3c1.1,1,6.9,8.5,12.6,8.5C107.8,23.4,109.2,22.9,109.4,22.3z M96.1,10.7c0,1.5-1,2.8-2.4,3.3H91V8.4   c0-0.9,0.2-1,1.5-1C94.8,7.5,96.1,9,96.1,10.7z M114.1,17.5l-0.7,0.1c-0.8,1.4-1.1,1.7-2.7,1.7h-2.3c-1,0-1-0.1-1-1.1v-4.9h5v-0.8   h-5V7.8l3.8,0.1c1.3,0.1,1.5,0.1,1.8,1.5l0.5,0.1L113,6.9h-7c-0.7,0-1.4-0.1-2.1-0.2l-0.5-0.1l0.1,0.5c0.1,0,0.2,0,0.3,0.1   c1.5,0.2,1.7,0.6,1.7,1.8v9.1c0,1.2-0.2,1.6-1.7,1.8c-0.1,0-0.2,0.1-0.3,0.1l-0.1,0.5l0.5-0.1c0.7-0.1,1.4-0.2,2.1-0.2h3.6   c1.4,0.1,3.4,0.1,3.4,0.1C113.1,19.3,113.5,18.4,114.1,17.5z M129.1,6.7l-0.5,0.1c-0.7,0.1-1.4,0.2-2.1,0.2h-0.2   c-0.7,0-1.4-0.1-2.1-0.2l-0.5-0.1l0.1,0.5c0.1,0,0.2,0,0.3,0.1c1.5,0.2,1.5,0.8,0.9,1.8l-2.9,4.5l-3-4.5c-0.5-0.8-1.2-1.6,0.2-1.8   c0.1,0,0.2-0.1,0.3-0.1l0.1-0.5l-0.5,0.1c-0.7,0.1-1.5,0.2-2.3,0.2h-1c-0.7,0-1.4-0.1-2.1-0.2l-0.5-0.1l0.1,0.5   c0.1,0,0.2,0,0.3,0.1c1.2,0.1,2.3,0.8,2.9,1.8l3.8,5.6v3.6c0,1.2-0.2,1.6-1.7,1.8c-0.1,0-0.2,0.1-0.3,0.1l-0.1,0.5l0.5-0.1   c0.7-0.1,1.4-0.2,2.1-0.2h1c0.7,0,1.4,0.1,2.1,0.2l0.5,0.1l-0.1-0.5c-0.1,0-0.2,0-0.3-0.1c-1.5-0.2-1.7-0.6-1.7-1.8v-3.7l3.6-5.5   c0.6-0.8,1-1.6,2.5-1.8c0.1,0,0.2-0.1,0.3-0.1L129.1,6.7L129.1,6.7z"/>
	<path class="st1" d="M9.8,5.5c5.4,0,7.7,0.8,7.7,0.8v12.6l-7.7,3.6l-7.7-3.6V6.4C2.1,6.4,4.5,5.5,9.8,5.5 M14.5,13.9h-0.2   c-0.3,0-0.7,0.1-1,0.1h-1.1c-0.3,0-0.7,0-1-0.1H11v0.3h0.1c0.6,0.1,0.8,0.2,0.8,0.7v1.6c-0.4,0.2-0.9,0.3-1.3,0.2   c-1.7,0-3.1-1.4-3.1-3.1v-0.1c-0.1-1.8,1.1-3.4,2.8-3.4c1.8,0,2.4,0.6,2.5,1.7h0.3L13,9.7c-0.5,0.3-1.1-0.5-3-0.5   C7.6,9.1,5.5,11,5.4,13.4l0,0c0,2.4,2,4,4.6,4c1.1,0,2.2-0.2,3.3-0.7v-2c0-0.5,0.2-0.7,0.8-0.7h0.1L14.5,13.9z"/>
	<path class="st1" d="M9.8,4.2c6.2,0,9,1,9,1v14.5l-9,4.2l-9-4.2V5.2C0.9,5.2,3.6,4.2,9.8,4.2 M9.8,4.8C4,4.8,1.4,5.7,1.4,5.7v13.6   l8.4,3.9l8.4-3.9V5.7C18.2,5.7,15.6,4.8,9.8,4.8"/>
</g>
<g id="Layer_3">
	<path d="M52.9,9.7l-0.2,0.1c-0.6,0.1-1.1,0.2-1.7,0.2h-0.8c-0.6,0-1.1-0.1-1.7-0.2L48,9.7l0.1,0.4c0.1,0,0.2,0,0.2,0.1   c1.2,0.2,1.4,0.5,1.4,1.5v2.3c-0.7,0.4-1.5,0.6-2.3,0.5c-2.6,0-4.9-2-5-5c-0.2-2.9,1.8-5.3,4.6-5.3c1.9,0,3.4,0.7,4.1,2.5h0.4   l-0.4-2.5c-0.7,0.5-1.6-0.7-3.8-0.7c-3.8,0-6.5,2.8-6.5,6.1c0,3.4,2.9,5.6,6.5,5.6c1.4-0.1,2.8-0.5,4.1-1.1v-2.4   c0-1,0.2-1.3,1.4-1.5c0.2-0.1,0.2,0,0.2,0L52.9,9.7z M66.8,9c0-3.4-2.9-5.6-6.5-5.6c-3.8,0-6.5,2.8-6.5,6.1c0,3.4,2.9,5.6,6.5,5.6   C64.1,15,66.8,12.2,66.8,9z M65.3,9.2c0.2,2.8-1.6,5.1-4.4,5.1c-3,0-5.2-2.3-5.5-5.1c-0.2-2.8,1.6-5.1,4.4-5.1   C62.9,4.1,64.9,6.3,65.3,9.2z M79.9,8.9c0-3.2-2.9-5.3-6.5-5.3c-0.8,0-2.9,0.1-2.9,0.1c-0.9,0-1.7-0.1-2.6-0.2l-0.4-0.1l0.1,0.4   c0.1,0,0.2,0,0.2,0.1c1.2,0.2,1.4,0.5,1.4,1.5v7.5c0,1-0.2,1.3-1.4,1.5c-0.1,0-0.2,0.1-0.2,0.1l-0.1,0.4l0.4-0.1   c0.6-0.1,1.1-0.2,1.7-0.2l3.8,0.1C77.2,14.7,79.9,12,79.9,8.9z M78.2,9c0,2.7-2,5.1-4.8,5.1c-2.1,0-2.6-0.4-2.6-1.5V4.3   c0.4-0.1,2.1-0.1,2.6-0.1c2.6,0,4.7,2,4.8,4.7C78.2,8.9,78.2,8.9,78.2,9z M88.5,5.7l-0.4-2h-5.7c-0.6,0-1.1-0.1-1.7-0.2l-0.4-0.1   l0.1,0.4c0.1,0,0.2,0,0.2,0.1C81.8,4,82,4.4,82,5.3v7.5c0,1-0.2,1.3-1.4,1.5c-0.1,0.1-0.2,0.1-0.2,0.1l-0.1,0.4l0.4-0.1   c0.6-0.1,1.1-0.2,1.7-0.2h0.8c0.6,0,1.1,0.1,1.7,0.2l0.4,0.1l-0.2-0.4c-0.1,0-0.2,0-0.2-0.1c-1.2-0.2-1.4-0.5-1.4-1.5v-4h4.1V8.2   h-4.1V4.4l3.1,0.1c1.1,0.1,1.2,0.1,1.5,1.2L88.5,5.7L88.5,5.7z M107.8,16.3c-1.1,0.4-2.4,0.4-3.5,0.1c-3.5-1.2-6.7-5.7-8.3-6.8   c1.1-0.4,2.4-1.5,2.4-3.1c0-1.6-1.5-2.8-4-2.8c-1.9,0-2.5,0.1-2.8,0.1h-0.2c-0.6,0-1.1-0.1-1.7-0.2l-0.4-0.1l0.1,0.4   c0.1,0,0.2,0,0.2,0.1c1.2,0.1,1.5,0.4,1.5,1.5v7.4c0,1-0.2,1.3-1.4,1.5c-0.1,0-0.2,0-0.3,0l-0.1,0.4l0.4-0.1   c0.6-0.1,1.1-0.2,1.7-0.2h0.8c0.6,0,1.1,0.1,1.7,0.2l0.4,0.1l-0.1-0.4c-0.1,0-0.2,0-0.2-0.1c-1.2-0.2-1.4-0.5-1.4-1.5V9.9h1.6   c0.2,0.1,0.4,0.2,0.6,0.2c0.9,0.8,5.6,7,10.3,7C106.5,17.2,107.7,16.8,107.8,16.3z M96.9,6.8c0,1.2-0.8,2.3-2,2.7h-2.2V4.9   c0-0.7,0.2-0.8,1.2-0.8C95.9,4.2,96.9,5.4,96.9,6.8z M111.7,12.4l-0.6,0.1c-0.7,1.1-0.9,1.4-2.2,1.4H107c-0.8,0-0.8-0.1-0.8-0.9v-4   h4.1V8.3h-4.1V4.4l3.1,0.1c1.1,0.1,1.2,0.1,1.5,1.2l0.4,0.1l-0.4-2.1H105c-0.6,0-1.1-0.1-1.7-0.2l-0.4-0.1l0.1,0.4   c0.1,0,0.2,0,0.2,0.1c1.2,0.2,1.4,0.5,1.4,1.5v7.4c0,1-0.2,1.3-1.4,1.5c-0.1,0-0.2,0.1-0.2,0.1l-0.1,0.4l0.4-0.1   c0.6-0.1,1.1-0.2,1.7-0.2h2.9c1.1,0.1,2.8,0.1,2.8,0.1C110.8,13.8,111.2,13.1,111.7,12.4z M123.9,3.5l-0.4,0.1   c-0.6,0.1-1.1,0.2-1.7,0.2h-0.2c-0.6,0-1.1-0.1-1.7-0.2l-0.4-0.1l0.1,0.4c0.1,0,0.2,0,0.2,0.1c1.2,0.2,1.2,0.7,0.7,1.5l-2.4,3.7   l-2.5-3.7c-0.4-0.7-1-1.3,0.2-1.5c0.1,0,0.2-0.1,0.2-0.1l0.1-0.4l-0.4,0.1c-0.6,0.1-1.2,0.2-1.9,0.2h-0.8c-0.6,0-1.1-0.1-1.7-0.2   L111,3.5l0.1,0.4c0.1,0,0.2,0,0.2,0.1c1,0.1,1.9,0.7,2.4,1.5l3.1,4.6V13c0,1-0.2,1.3-1.4,1.5c-0.1,0-0.2,0.1-0.2,0.1l-0.1,0.4   l0.4-0.1c0.6-0.1,1.1-0.2,1.7-0.2h0.8c0.6,0,1.1,0.1,1.7,0.2l0.4,0.1l-0.1-0.4c-0.1,0-0.2,0-0.2-0.1c-1.2-0.2-1.4-0.5-1.4-1.5v-3   l2.9-4.5c0.5-0.7,0.8-1.3,2-1.5c0.1,0,0.2-0.1,0.2-0.1L123.9,3.5L123.9,3.5z"/>
	<path d="M22,3.5c7.1,0,10.1,1.1,10.1,1.1v16.6L22,25.9l-10.1-4.7V4.7C11.8,4.7,15,3.5,22,3.5 M28.1,14.6h-0.3   c-0.4,0-0.9,0.1-1.3,0.1h-1.4c-0.4,0-0.9,0-1.3-0.1h-0.3V15h0.1c0.8,0.1,1.1,0.3,1.1,0.9V18c-0.5,0.3-1.2,0.4-1.7,0.3   c-2.2,0-4.1-1.8-4.1-4.1V14c-0.1-2.4,1.4-4.5,3.7-4.5c2.4,0,3.2,0.8,3.3,2.2h0.4l-0.1-2.8c-0.7,0.4-1.4-0.7-3.9-0.7   c-3.2-0.1-5.9,2.4-6.1,5.5l0,0c0,3.2,2.6,5.3,6.1,5.3c1.4,0,2.9-0.3,4.3-0.9v-2.6c0-0.7,0.3-0.9,1.1-0.9h0.1L28.1,14.6z"/>
	<path d="M22,1.8c8.2,0,11.8,1.3,11.8,1.3v19.1L22,27.7l-11.8-5.5V3.1C10.3,3.1,13.8,1.8,22,1.8 M22,2.6c-7.6,0-11.1,1.2-11.1,1.2   v17.9L22,26.8L33,21.7V3.8C33,3.8,29.6,2.6,22,2.6"/>
	<g>
		<path class="st2" d="M60.5,20.2c1.3,1.2,2.6,2.4,4,3.7c0-1.1,0-2.1,0-3.1c0-0.3-0.2-0.4-0.5-0.5c0.6,0,1.1,0,1.7,0    c-0.5,0.1-0.6,0.4-0.5,0.7c0,1.4,0,2.8,0,4.3c-1.3-1.2-2.7-2.5-4.1-3.8c0.2,1.3-0.2,2.5,0.2,3.7c-0.4,0-0.8,0-1.4,0    c0.5-0.1,0.6-0.4,0.6-0.8c0-1.3,0-2.5,0-3.8C60.3,20.4,60.2,20.3,60.5,20.2z"/>
		<path class="st2" d="M84.1,20.2c1.3,1.2,2.6,2.4,4,3.7c0-1.1,0-2.1,0-3.1c0-0.3-0.2-0.4-0.5-0.5c0.6,0,1.1,0,1.7,0    c-0.5,0.1-0.6,0.4-0.5,0.7c0,1.4,0,2.8,0,4.3c-1.3-1.2-2.7-2.5-4.1-3.8c0.2,1.3-0.2,2.5,0.2,3.7c-0.4,0-0.8,0-1.4,0    c0.5-0.1,0.6-0.4,0.6-0.8c0-1.3,0-2.5,0-3.8C84,20.4,83.8,20.3,84.1,20.2z"/>
		<path class="st2" d="M49,25.1c0.4-0.1,0.5-0.4,0.5-0.8c0-1.4,0-2.8,0-4.2c0-0.3,0-0.5-0.3-0.7c0.9,0,1.8-0.1,2.6,0    c0.6,0.1,1.1,0.6,1.2,1.2c0.1,0.7-0.1,1.3-0.7,1.7c-0.6,0.4-1.2,0.4-1.7,0c1.2-0.1,1.7-0.7,1.5-1.7c-0.1-0.8-1-1.2-1.8-0.9    c-0.2,0.1-0.1,0.2-0.1,0.3c0,1.5,0,2.9,0,4.4c0,0.4,0.2,0.6,0.6,0.7C50.1,25.1,49.6,25.1,49,25.1z"/>
		<path class="st3" d="M107.8,21c0-0.3,0-0.6,0-0.9c1.5,0.1,3,0.1,4.6,0c0,0.3,0,0.6,0,0.9c-0.2-0.4-1.4-0.7-1.8-0.5    c-0.1,0.1-0.1,0.2-0.1,0.3c0,1.2,0,2.4,0,3.6c0,0.3,0.1,0.5,0.6,0.6c-0.7,0-1.3,0-1.8,0c0.5-0.1,0.5-0.4,0.5-0.8    c0-1.1,0-2.3,0-3.4c0-0.3-0.1-0.4-0.4-0.4c-0.2,0-0.5,0-0.7,0C108.2,20.5,107.9,20.6,107.8,21z"/>
		<path class="st3" d="M69.1,25.1c-0.6,0-1.1,0-1.7,0c0.4-0.1,0.5-0.4,0.5-0.8c0-1.1,0-2.3,0-3.4c0-0.4-0.1-0.5-0.5-0.4    c-0.2,0-0.4,0-0.6,0c-0.4,0-0.7,0.1-0.8,0.6c0-0.3,0-0.6,0-0.9c1.5,0.1,3,0.1,4.6,0c0,0.3,0,0.6,0,0.9c-0.1-0.5-0.5-0.6-0.9-0.6    c-1,0-1,0-1,1c0,1,0,1.9,0,2.9C68.7,24.7,68.8,25,69.1,25.1z"/>
		<path class="st2" d="M115.5,20.8c-0.2-0.4-0.6-0.4-1-0.4c-0.4,0-0.7,0.1-0.8,0.5c-0.1,0.4,0.1,0.6,0.4,0.8c0.4,0.3,0.9,0.7,1.4,1    c0.6,0.4,0.7,0.8,0.6,1.4c-0.1,0.5-0.7,1-1.3,1c-0.3,0-0.5,0-0.8,0c-1-0.1-1.2-0.4-0.8-1.5c0.1,0.4,0.2,0.8,0.5,1    c0.3,0.2,0.7,0.3,1.1,0.2c0.4-0.1,0.6-0.3,0.7-0.6c0.1-0.3-0.1-0.6-0.3-0.8c-0.5-0.4-1-0.7-1.4-1.1c-0.5-0.4-0.7-0.9-0.5-1.4    c0.2-0.5,0.6-0.9,1.2-0.9c0.4,0,0.8,0,1.1,0.1c0.4,0.1,0.1,0.3,0.2,0.5C115.6,20.8,115.6,20.9,115.5,20.8z"/>
		<path class="st4" d="M115.5,20.8c0.1,0,0.1-0.1,0.2-0.1c0,0.1,0,0.3,0,0.4C115.5,21.1,115.5,20.9,115.5,20.8z"/>
		<path class="st2" d="M92.1,25.1c0.4-0.1,0.5-0.4,0.5-0.8c0-1.3,0-2.7,0-4c0-0.3,0-0.6-0.3-0.8c0.8,0,1.6-0.1,2.4,0    c0.5,0.1,0.9,0.4,1,1c0.1,0.6-0.1,1-0.7,1.5c0.6,0.2,1,0.5,1.2,1.1c0.3,0.9-0.2,1.7-1.2,1.9C94,25.3,93.1,25.1,92.1,25.1z     M94.9,20.7c0-0.6-0.4-0.9-1-1c-0.4,0-0.5,0-0.5,0.5c0,1.3,0,2.7,0,4c0,0.7,0,0.7,0.7,0.7c0.7,0,1.1-0.4,1.2-1.1    c0.1-0.8-0.2-1.3-0.9-1.6c-0.2,0-0.3-0.1-0.6-0.1C94.7,21.8,94.9,21.5,94.9,20.7z"/>
		<path class="st2" d="M99.8,25.3c-2,0-3.3-1.7-2.6-3.5c0.4-1,1.4-1.6,2.6-1.6c1.3,0,2.3,0.6,2.7,1.6c0.4,1,0.2,2.1-0.6,2.8    C101.3,25.1,100.6,25.3,99.8,25.3z M101.8,22.3c-0.1-0.9-0.6-1.6-1.4-1.8c-0.8-0.2-1.5,0-2,0.6c-0.7,0.8-0.7,2.3-0.1,3.1    c0.3,0.4,0.7,0.7,1.1,0.8c1.3,0.3,2.4-0.7,2.4-2.2C101.8,22.6,101.8,22.4,101.8,22.3z"/>
		<path class="st2" d="M79.7,25.2c-1.7,0-2.9-1.7-2.3-3.5c0.3-1,1.4-1.6,2.5-1.7c1.3,0,2.3,0.6,2.7,1.6c0.4,1,0.1,2.1-0.7,2.8    C81.4,25.1,80.7,25.3,79.7,25.2z M82,22.3c-0.1-0.9-0.6-1.6-1.4-1.8c-0.8-0.2-1.5,0-2,0.6c-0.7,0.8-0.7,2.3-0.1,3.1    c0.3,0.4,0.7,0.7,1.1,0.8c1.3,0.3,2.4-0.7,2.4-2.2C82,22.6,82,22.4,82,22.3z"/>
		<path class="st2" d="M73.4,25.2c-1.8,0-3-1.7-2.3-3.5c0.4-1,1.4-1.6,2.6-1.6c1.3,0,2.3,0.6,2.7,1.6c0.4,1,0.2,2.1-0.6,2.8    C75.1,25.1,74.4,25.3,73.4,25.2z M75.7,22.3c-0.1-0.9-0.5-1.5-1.3-1.8c-0.8-0.3-1.5-0.1-2,0.5c-0.8,0.9-0.8,2.5,0,3.4    c0.3,0.3,0.6,0.5,1,0.5c1.3,0.3,2.3-0.7,2.3-2.3C75.7,22.6,75.7,22.5,75.7,22.3z"/>
		<path class="st2" d="M56.1,25.2c-1.8,0-3-1.7-2.4-3.5c0.4-1,1.4-1.6,2.6-1.6c1.3,0,2.3,0.6,2.7,1.6c0.4,1,0.2,2.1-0.6,2.8    C57.8,25.1,57.1,25.3,56.1,25.2z M58.4,22.3c-0.1-0.9-0.6-1.6-1.4-1.8c-0.8-0.2-1.5,0-2,0.6c-0.7,0.8-0.7,2.3-0.1,3.1    c0.3,0.4,0.7,0.7,1.1,0.8c1.3,0.3,2.4-0.7,2.4-2.2C58.4,22.6,58.4,22.4,58.4,22.3z"/>
		<path class="st2" d="M106.4,25.1c0.4-0.1,0.4-0.4,0.3-0.6c-0.1-0.2-0.2-0.4-0.2-0.6c-0.1-0.3-0.2-0.4-0.5-0.3c-0.2,0-0.5,0-0.7,0    c-1,0-1,0-1.3,0.9c-0.1,0.3,0,0.4,0.2,0.6c-0.2,0-0.5,0-0.7,0c-0.2,0-0.5,0-0.7,0c0.4-0.2,0.6-0.5,0.7-0.8c0.6-1.4,1.3-2.8,2-4.3    c0.7,1.4,1.3,2.8,1.9,4.2c0.2,0.3,0.3,0.7,0.7,0.8C107.7,25.1,107.1,25.1,106.4,25.1z M104.6,23.3c0.6,0,1.1,0,1.7,0    c-0.3-0.7-0.5-1.3-0.8-2C105.1,22,104.8,22.7,104.6,23.3z"/>
	</g>
</g>
</svg>