<svg xmlns:inkscape="http://www.inkscape.org/namespaces/inkscape" xmlns:sodipodi="http://sodipodi.sourceforge.net/DTD/sodipodi-0.dtd" xmlns="http://www.w3.org/2000/svg" xmlns:svg="http://www.w3.org/2000/svg" version="1.1" id="svg2" sodipodi:docname="lund-seeklogo.ai" viewBox="287.36 496.64 239.53 62.72">
  <defs id="defs6"/>
  <sodipodi:namedview id="namedview4" pagecolor="#ffffff" bordercolor="#000000" borderopacity="0.25" inkscape:showpageshadow="2" inkscape:pageopacity="0.0" inkscape:pagecheckerboard="0" inkscape:deskcolor="#d1d1d1"/>
  <g id="g8" inkscape:groupmode="layer" inkscape:label="lund-seeklogo" transform="matrix(1.3333333,0,0,-1.3333333,0,1056)">
    <g id="g10" transform="scale(1,-1)">
      <path d="m 215.52002,-372.48047 c 0,0 0,-1.85254 0,-1.85254 0,0 3.64697,-0.66601 3.64697,-5.5 0,-4.83398 0,-29 0,-32.50049 0,-3.50048 -1.29394,-5 -3.64697,-5 0,0 4.9e-4,-2.18652 4.9e-4,-2.18652 0,0 16.81347,0 16.81347,0 0,0 0,34.85303 0,34.85303 0,0 17.5,-4.33301 20.33301,-5.33301 2.83301,-1 2.83301,-4.83301 2.83301,-4.83301 0,0 1.5,-0.41699 1.5,-0.41699 0,0 0,9.5 0,9.5 0,0 -41.47998,13.26953 -41.47998,13.26953 z" style="fill:#d02c28;fill-opacity:1;fill-rule:nonzero;stroke:none" id="path12"/>
      <path d="m 254.9165,-419.52002 c 0,0 0,1.35352 0,1.35352 0,0 3.167,0.16748 3.167,3 0,2.83252 0,11.83349 0,18.25 0,6.4165 6.66601,10.4165 12.083,10.4165 5.417,0 16.3335,-0.99902 19.3335,-2.08301 3,-1.08398 7.8335,-6.41797 7.8335,-11.25049 0,-4.83252 0,-12.49951 0,-15.5 0,-3.00048 2.25048,-3.00048 4.1665,-3.00048 0,0 0,-1.18604 0,-1.18604 0,0 -9.75,0 -9.75,0 0,0 0,10.93604 0,16.02002 0,5.08398 -2.41699,10.75 -10.5835,10.75 -8.1665,0 -9.5,-6.83398 -9.5,-9.25 0,-2.41602 0,-17.52002 0,-17.52002 0,0 -16.75,0 -16.75,0 z" style="fill:#d02c28;fill-opacity:1;fill-rule:nonzero;stroke:none" id="path14"/>
      <path d="m 302.91699,-419.52002 c 0,0 0,1.35352 0,1.35352 0,0 3.20801,-1.16553 3.20801,3.20849 0,4.37403 0,19.04102 0,20.79102 0,1.75 -1.375,3.25 -3.625,3.25 0,0 0,1.41699 0,1.41699 0,0 6.75,0.25 9.41699,0.75 0,0 0,-22.0835 0,-22.0835 0,0 26.08301,24.00049 26.08301,24.00049 0,0 5.58398,0.16602 10.16699,0.91602 0,0 0,-1.58301 0,-1.58301 0,0 -3.75,0.083 -3.75,-2.75 0,-2.83301 0,-22.83301 0,-25.1665 0,-2.3335 2.08399,-2.667 3.66699,-2.667 0,0 0,-1.43652 0,-1.43652 0,0 -9.5,0 -9.5,0 0,0 0,15.85352 0,15.85352 0,0 -17.25,-15.85352 -17.25,-15.85352 0,0 -18.41699,0 -18.41699,0 z" style="fill:#d02c28;fill-opacity:1;fill-rule:nonzero;stroke:none" id="path16"/>
      <path d="m 384.08301,-387.16602 c 0,3.08399 -1.83301,3.91602 -4.83301,3.33301 -3,-0.58301 -12.58301,-3.16699 -12.58301,-3.16699 0,0 0,-26.25 0,-26.25 0,0 10.5,0.3335 12.75,0.66699 2.25,0.3335 4.66602,0.75 4.66602,5.41651 0,0 0,20.00048 0,20.00048 z m 4,-32.354 c 0,0 -38.08301,0 -38.08301,0 0,0 0,1.43701 0,1.43701 0,0 3.54102,-0.16699 3.54102,3.54151 0,0 0,25.45849 0,25.45849 0,2.33301 -2.20801,2.08301 -3.29102,2.08301 0,0 0,1.58398 0,1.58398 0,0 7.00098,1.75 19.16699,5.25 12.16602,3.5 18.91602,5.5 20.33301,5.5 1.41699,0 5.41699,-2.58398 5.41699,-7.58398 0,0 0,-24.58301 0,-24.58301 0,-4.16699 -0.25097,-10.95703 -7.08398,-12.68701 z" style="fill:#d02c28;fill-opacity:1;fill-rule:nonzero;stroke:none" id="path18"/>
    </g>
  </g>
</svg>